<svg width="19" height="22" viewBox="0 0 19 22" fill="none" xmlns="http://www.w3.org/2000/svg">
<path d="M1.66675 18.5V3.5C1.66675 2.83696 1.93014 2.20107 2.39898 1.73223C2.86782 1.26339 3.50371 1 4.16675 1H16.6667C16.932 1 17.1863 1.10536 17.3739 1.29289C17.5614 1.48043 17.6667 1.73478 17.6667 2V20C17.6667 20.2652 17.5614 20.5196 17.3739 20.7071C17.1863 20.8946 16.932 21 16.6667 21H4.16675C3.50371 21 2.86782 20.7366 2.39898 20.2678C1.93014 19.7989 1.66675 19.163 1.66675 18.5ZM1.66675 18.5C1.66675 17.837 1.93014 17.2011 2.39898 16.7322C2.86782 16.2634 3.50371 16 4.16675 16H17.6667M13.8334 7H5.83337" stroke="#A2ADD0" stroke-width="2" stroke-linecap="round" stroke-linejoin="round"/>
</svg>
