<svg width="20" height="19" viewBox="0 0 20 19" fill="none" xmlns="http://www.w3.org/2000/svg">
<path d="M9.99998 18H19M13 2.99998L16 5.99998M14.376 1.62198C14.7741 1.22389 15.314 1.00024 15.877 1.00024C16.44 1.00024 16.9799 1.22389 17.378 1.62198C17.7761 2.02007 17.9997 2.55999 17.9997 3.12298C17.9997 3.68596 17.7761 4.22589 17.378 4.62398L5.36798 16.635C5.13007 16.8729 4.836 17.0469 4.51298 17.141L1.64098 17.979C1.55493 18.0041 1.46372 18.0056 1.37689 17.9833C1.29006 17.9611 1.2108 17.9159 1.14742 17.8525C1.08404 17.7892 1.03887 17.7099 1.01662 17.6231C0.994374 17.5362 0.995879 17.445 1.02098 17.359L1.85898 14.487C1.9532 14.1643 2.12722 13.8706 2.36498 13.633L14.376 1.62198Z" stroke="#323232" stroke-width="2" stroke-linecap="round" stroke-linejoin="round"/>
</svg>
